<?xml version="1.0" standalone="no"?>
<!DOCTYPE svg PUBLIC "-//W3C//DTD SVG 20010904//EN"
 "http://www.w3.org/TR/2001/REC-SVG-20010904/DTD/svg10.dtd">
<svg version="1.0" xmlns="http://www.w3.org/2000/svg"
 width="512.000000pt" height="512.000000pt" viewBox="0 0 512.000000 512.000000"
 preserveAspectRatio="xMidYMid meet">
<metadata>
Created by potrace 1.14, written by Peter Selinger 2001-2017
</metadata>
<g transform="translate(0.000000,512.000000) scale(0.100000,-0.100000)"
fill="#000000" stroke="none">
<path d="M2379 5116 c-2 -2 -40 -6 -83 -10 -44 -4 -82 -9 -85 -11 -4 -2 -34
-7 -66 -10 -117 -14 -472 -111 -499 -136 -6 -5 -16 -9 -23 -9 -8 0 -42 -13
-76 -29 -34 -16 -84 -39 -112 -51 -27 -12 -66 -33 -87 -46 -21 -13 -38 -21
-38 -17 0 5 -4 3 -8 -3 -4 -6 -27 -22 -52 -35 -180 -97 -466 -336 -620 -518
-25 -30 -50 -59 -55 -65 -51 -55 -215 -295 -215 -314 0 -6 -4 -12 -9 -14 -11
-3 -116 -211 -156 -307 -43 -104 -80 -213 -111 -331 -6 -21 -43 -184 -44 -190
0 -3 -2 -18 -5 -35 -3 -16 -7 -43 -10 -60 -14 -86 -20 -190 -19 -375 0 -183 3
-241 19 -345 3 -16 7 -43 9 -60 7 -45 25 -134 36 -174 5 -20 11 -45 13 -56 20
-114 151 -444 237 -595 122 -215 266 -405 427 -565 114 -113 116 -116 239
-212 180 -141 312 -220 547 -327 48 -22 78 -34 102 -42 19 -6 150 -53 153 -55
1 -1 5 -2 10 -3 4 -2 27 -8 52 -15 25 -7 52 -15 60 -17 34 -8 181 -42 185 -43
3 0 20 -2 38 -5 153 -25 224 -30 422 -31 231 0 299 6 505 46 58 12 115 23 128
25 47 9 320 103 387 134 213 96 451 240 588 353 118 98 282 257 337 327 14 18
32 40 41 49 15 14 116 150 147 197 127 191 221 385 297 609 33 98 68 227 80
294 3 19 7 37 9 40 3 5 9 42 22 131 20 146 26 454 12 600 -47 468 -224 923
-507 1295 -25 33 -50 65 -56 71 -5 6 -26 30 -45 54 -106 127 -366 363 -467
423 -18 10 -33 23 -33 28 0 5 -6 9 -14 9 -7 0 -24 9 -37 19 -63 50 -268 156
-444 231 -141 60 -419 133 -595 156 -25 3 -56 8 -70 10 -29 6 -456 15 -461 10z"/>
</g>
</svg>
