<?xml version="1.0" standalone="no"?>
<!DOCTYPE svg PUBLIC "-//W3C//DTD SVG 1.1//EN" "http://www.w3.org/Graphics/SVG/1.1/DTD/svg11.dtd" >
<svg xmlns="http://www.w3.org/2000/svg" xmlns:xlink="http://www.w3.org/1999/xlink" version="1.1">
<metadata></metadata>
<defs>
<font id="mnregular" horiz-adv-x="724" >
<font-face units-per-em="2048" ascent="1638" descent="-410" />
<missing-glyph horiz-adv-x="409" />
<glyph horiz-adv-x="0" />
<glyph unicode="&#xd;" horiz-adv-x="409" />
<glyph horiz-adv-x="0" />
<glyph horiz-adv-x="0" />
<glyph unicode=" "  horiz-adv-x="409" />
<glyph unicode="&#x09;" horiz-adv-x="409" />
<glyph unicode="&#xa0;" horiz-adv-x="409" />
<glyph unicode="!" horiz-adv-x="419" d="M164 0v164h164v-164h-164zM164 324v931h164v-931h-164z" />
<glyph unicode="&#x22;" horiz-adv-x="530" d="M72 1413h143l-31 -287h-82zM315 1413h144l-31 -287h-82z" />
<glyph unicode="#" horiz-adv-x="1107" d="M61 285l39 147h154l63 242h-151l39 149h153l62 230h147l-61 -230h242l61 230h147l-61 -230h152l-39 -149h-154l-63 -242h151l-39 -147h-151l-64 -230h-147l61 230h-242l-61 -230h-147l61 230h-152zM401 432h242l64 242h-242z" />
<glyph unicode="$" horiz-adv-x="1003" d="M102 901q0 72 27 136.5t74 111.5t110.5 75.5t135.5 30.5v109h102v-109q92 -2 164.5 -45t132.5 -100l-117 -117q-96 96 -180 99v-383q74 0 137.5 -29t110.5 -77t74.5 -111.5t27.5 -137.5t-27.5 -137t-74.5 -111.5t-110.5 -77t-137.5 -28.5v-109h-102v109h-23 q-94 0 -168 43t-131 102l115 115q100 -96 184 -96h23v381q-72 2 -135.5 30.5t-110.5 76.5t-74 111.5t-27 137.5zM266 901q0 -39 14.5 -73.5t39 -60.5t58.5 -41t71 -17v383q-76 -4 -129.5 -58.5t-53.5 -132.5zM551 164q39 0 72.5 15.5t59.5 41t40 60t14 73.5t-14 74t-40 60.5 t-59.5 41t-72.5 15.5v-381z" />
<glyph unicode="%" horiz-adv-x="1370" d="M92 965q0 55 21.5 104t57.5 85t85 57.5t104 21.5t104.5 -21.5t85.5 -57.5t57.5 -85t21.5 -104t-21.5 -104.5t-57.5 -85.5t-85 -57.5t-105 -21.5q-55 0 -104 21.5t-85 57.5t-57.5 85t-21.5 105zM221 0l770 1255h164l-768 -1255h-166zM248 965q0 -47 32.5 -80t79.5 -33 t79 33t32 80t-31.5 79.5t-79.5 32.5q-47 0 -79.5 -32.5t-32.5 -79.5zM741 289q0 55 21.5 103t57.5 85t85 57.5t105 20.5q55 0 104 -20.5t85 -57.5t57.5 -85t21.5 -103t-21.5 -104.5t-57.5 -86.5t-85 -57.5t-104 -20.5t-104.5 20.5t-85.5 57.5t-57.5 86t-21.5 105zM897 289 q0 -47 33 -80t80 -33t78.5 33t31.5 80t-31.5 78.5t-78.5 31.5t-80 -31.5t-33 -78.5z" />
<glyph unicode="&#x26;" horiz-adv-x="1114" d="M72 385q0 106 52 194.5t138 139.5l33 18l-39 45q-70 82 -76 164t30 148.5t102.5 110.5t141 51.5t146.5 -30.5t117 -134q23 -49 25.5 -101.5t-12.5 -100.5t-47 -90t-77 -69l-61 -35l250 -288l127 124l114 -116l-135 -133l141 -166l-124 -107l-134 156l-57 -55 q-51 -53 -120.5 -82t-149.5 -29t-150.5 29.5t-123 82t-82 123t-29.5 150.5zM236 385q0 -47 17 -87t47 -69.5t70 -47t87 -17.5t87 17.5t68 45.5l66 64l-275 321l-59 -34q-49 -29 -78.5 -80.5t-29.5 -112.5zM347.5 994q-7.5 -58 31.5 -103l57 -70l86 51q47 29 55.5 74t-12 82 t-61.5 56.5t-92 -5.5q-57 -27 -64.5 -85z" />
<glyph unicode="'" horiz-adv-x="286" d="M72 1413h143l-31 -287h-82z" />
<glyph unicode="(" horiz-adv-x="509" d="M102 668q0 172 41 347t125 359h181q-92 -188 -137.5 -361t-45.5 -344t45 -344t138 -362h-181q-84 184 -125 358.5t-41 346.5z" />
<glyph unicode=")" horiz-adv-x="509" d="M61 -37q92 188 137.5 361.5t45.5 344.5t-45 344t-138 361h181q82 -184 124 -359t42 -347t-42 -346.5t-124 -358.5h-181z" />
<glyph unicode="*" horiz-adv-x="620" d="M51 1198l43 133l146 -47v152h141v-152l145 47l43 -133l-145 -49l90 -123l-115 -82l-90 123l-88 -123l-115 82l91 123z" />
<glyph unicode="+" horiz-adv-x="929" d="M92 469v162h291v293h164v-293h291v-162h-291v-293h-164v293h-291z" />
<glyph unicode="," horiz-adv-x="348" d="M92 0v164h164v-164l-102 -168h-48l54 168h-68z" />
<glyph unicode="-" horiz-adv-x="929" d="M92 469v162h746v-162h-746z" />
<glyph unicode="." horiz-adv-x="348" d="M92 0v164h164v-164h-164z" />
<glyph unicode="/" horiz-adv-x="874" d="M41 -27l616 1307h177l-617 -1307h-176z" />
<glyph unicode="0" horiz-adv-x="909" d="M72 348v559q0 74 27.5 138.5t75.5 112.5t112.5 76t138.5 28h57q74 0 138.5 -28t112.5 -76t76 -112.5t28 -138.5v-559q0 -74 -28 -138.5t-76 -112.5t-112.5 -75.5t-138.5 -27.5h-57q-74 0 -138.5 27.5t-112.5 75.5t-75.5 112.5t-27.5 138.5zM236 348q0 -39 15 -73.5 t40.5 -60.5t60.5 -41t74 -15h57q39 0 74 15t61.5 41t41 60.5t14.5 73.5v559q0 39 -14.5 74t-41 60.5t-61.5 41t-74 15.5h-57q-39 0 -74 -15.5t-60.5 -41t-40.5 -60.5t-15 -74v-559z" />
<glyph unicode="1" horiz-adv-x="407" d="M20 1092v163h295v-1255h-163v1092h-132z" />
<glyph unicode="2" horiz-adv-x="866" d="M43 1085q27 31 56.5 63t66.5 56.5t82 41t104 16.5h58q74 0 138 -28t112.5 -76t76 -112.5t27.5 -138.5q0 -61 -19.5 -119.5t-54.5 -105.5l-405 -518h510v-164h-715v170l481 614q18 23 28.5 55.5t10.5 67.5q0 39 -14.5 74t-41 60.5t-61 41t-73.5 15.5h-58 q-39 0 -66.5 -12.5t-49 -31t-38 -40t-34.5 -39.5z" />
<glyph unicode="3" horiz-adv-x="837" d="M31 139l116 115q96 -96 185 -96h80q39 0 73.5 15t61 41t41 60.5t14.5 73.5q0 41 -15.5 79t-41 66.5t-60 46t-71.5 17.5h-127v164h110q80 0 131.5 55t51.5 129q0 80 -55.5 136.5t-135.5 56.5h-31q-90 0 -184 -99l-117 117q59 57 133 101.5t168 44.5h31q74 0 138.5 -28 t112.5 -77t75.5 -113.5t27.5 -138.5q0 -78 -30.5 -146.5t-83.5 -115.5q63 -51 100 -130t37 -165q0 -74 -27.5 -138.5t-76 -112.5t-113 -75.5t-137.5 -27.5h-80q-94 0 -168 43t-133 102z" />
<glyph unicode="4" horiz-adv-x="888" d="M31 266v164l518 825h166v-825h133v-164h-133v-266h-164v266h-520zM223 430h328v520z" />
<glyph unicode="5" horiz-adv-x="847" d="M41 129l117 117q94 -98 184 -99h80q80 0 135 56.5t55 136.5v70q0 39 -14 73.5t-41 60t-61.5 41t-73.5 15.5h-307v647h579v-164h-415v-319h143q74 0 138.5 -27.5t112.5 -76t75.5 -113t27.5 -137.5v-70q0 -74 -27.5 -138.5t-75.5 -113.5t-112.5 -76.5t-138.5 -27.5h-80 q-94 0 -168 44t-133 101z" />
<glyph unicode="6" horiz-adv-x="890" d="M72 348v92q0 66 22.5 125.5t63.5 106.5l383 575h190l4 -2l-299 -450h29q74 0 138.5 -28t112.5 -76t75.5 -112.5t27.5 -138.5v-92q0 -74 -27.5 -138.5t-75.5 -112.5t-112.5 -75.5t-138.5 -27.5h-39q-74 0 -138.5 27.5t-112.5 75.5t-75.5 112.5t-27.5 138.5zM236 348 q0 -39 15 -73.5t40.5 -60.5t60.5 -41t74 -15h39q39 0 73.5 15t61.5 41t41 60.5t14 73.5v92q0 39 -14 74t-41 60.5t-61.5 41t-73.5 15.5h-39q-84 0 -139 -60l-19 -28l-2 2q-31 -47 -30 -105v-92z" />
<glyph unicode="7" horiz-adv-x="761" d="M31 1092v163h680v-170l-385 -1085h-174l387 1092h-508z" />
<glyph unicode="8" horiz-adv-x="919" d="M72 348q0 86 36.5 163t100.5 126q-55 47 -88 118.5t-33 151.5q0 74 27.5 138.5t76 112.5t113 76t137.5 28h35q74 0 137.5 -29t111.5 -77t75.5 -112.5t27.5 -138.5q0 -80 -31.5 -150.5t-86.5 -117.5q63 -49 100 -126t37 -163q0 -74 -27.5 -138.5t-77 -112.5t-114 -75.5 t-137.5 -27.5h-66q-74 0 -138.5 27.5t-112.5 75.5t-75.5 112.5t-27.5 138.5zM236 348q0 -39 15 -73.5t40.5 -60.5t60.5 -41t74 -15h66q39 0 74.5 15t61 41t41 60.5t15.5 73.5q0 41 -15.5 78t-42 64.5t-61.5 44t-73 16.5h-5h-12h-49q-39 0 -74 -16.5t-60.5 -44t-40.5 -64.5 t-15 -78zM252 907q0 -39 14.5 -73.5t41 -61.5t60 -42t74.5 -15h43q39 0 72 15t57.5 42t39 61.5t14.5 71.5q0 80 -56.5 135.5t-136.5 57.5h-33q-39 0 -73.5 -15.5t-60 -41t-41 -60.5t-15.5 -74z" />
<glyph unicode="9" horiz-adv-x="890" d="M72 807v92q0 74 27.5 138.5t75.5 112.5t112.5 75.5t138.5 27.5h39q74 0 138.5 -27.5t112.5 -75.5t75.5 -112.5t27.5 -138.5v-92q0 -66 -21.5 -125t-62.5 -107l-385 -575h-190l-4 2l299 451h-29q-74 0 -138.5 27.5t-112.5 75.5t-75.5 112.5t-27.5 138.5zM236 807 q0 -41 15 -75t40.5 -60.5t60.5 -41t74 -14.5h39q84 0 139 60l19 29l2 -3q31 45 30 105v92q0 39 -14 74t-41 60.5t-61.5 41t-73.5 15.5h-39q-39 0 -74 -15.5t-60.5 -41t-40.5 -60.5t-15 -74v-92z" />
<glyph unicode=":" horiz-adv-x="348" d="M92 0v164h164v-164h-164zM92 694v164h164v-164h-164z" />
<glyph unicode=";" horiz-adv-x="348" d="M92 0v164h164v-164l-102 -168h-48l54 168h-68zM92 694v164h164v-164h-164z" />
<glyph unicode="&#x3c;" horiz-adv-x="927" d="M82 457v129l764 389v-160l-574 -295l574 -293v-161z" />
<glyph unicode="=" horiz-adv-x="929" d="M92 305v164h746v-164h-746zM92 631v164h746v-164h-746z" />
<glyph unicode="&#x3e;" horiz-adv-x="927" d="M82 66v161l575 293l-575 295v160l764 -389v-129z" />
<glyph unicode="?" horiz-adv-x="819" d="M31 1110q59 57 133 101t168 44h49q74 0 138.5 -27.5t113.5 -75.5t76.5 -112.5t27.5 -138.5v-72q0 -66 -23.5 -125t-63.5 -106t-95 -78t-119 -41v-180h-164v340h109q39 0 75 15.5t61.5 41t40.5 60.5t15 73v70q0 39 -15 75t-40.5 61.5t-61.5 41t-75 15.5h-49 q-90 0 -185 -99zM272 0v164h164v-164h-164z" />
<glyph unicode="@" horiz-adv-x="1406" d="M92 623.5q0 119.5 45 234.5t137 207q104 104 227.5 148t245 37t232.5 -60t190.5 -143.5t119.5 -213.5t20 -268q-10 -76 -47 -130t-84.5 -89t-96.5 -51t-86 -16q-49 0 -93 23.5t-73 64.5q-74 -51 -161 -52q-55 0 -102.5 21.5t-81 58.5t-51 86t-11.5 105l6 78 q4 53 28.5 100t62.5 82t87 55.5t105 20.5q76 0 137 -39l6 45h141q-4 -25 -9 -63t-11 -83t-12.5 -95t-10.5 -99l-2 -15q0 -6 -1 -11t-1 -11q-4 -23 -5 -43.5t-5 -38.5q-2 -16 13.5 -32.5t43.5 -16.5q55 0 94 28.5t59.5 74.5t25 105.5t-8 120t-40 117t-68.5 99.5 q-113 113 -238 137t-238.5 -14.5t-201.5 -127t-127 -202t-14.5 -238.5t137.5 -237q68 -68 155.5 -103t183 -41t190.5 13.5t177 58.5l60 -127q-102 -49 -218 -71.5t-233 -12.5t-224.5 54t-191.5 128q-92 92 -137 207t-45 234.5zM561 573q-4 -51 26.5 -84.5t80.5 -33.5 q51 0 93 33.5t48 82.5l4 31l4 62q4 51 -26.5 84.5t-79.5 33.5q-53 0 -96.5 -38.5t-47.5 -92.5z" />
<glyph unicode="A" horiz-adv-x="937" d="M0 0l391 1255h156l391 -1255h-170l-117 371h-364l-117 -371h-170zM338 535h262l-131 421z" />
<glyph unicode="B" horiz-adv-x="858" d="M82 0v1255h342q66 0 124 -24.5t101 -67.5t67.5 -100t24.5 -123v-63q0 -61 -22.5 -115.5t-61.5 -97.5q59 -43 94 -110t35 -144v-95q0 -70 -26.5 -127t-69.5 -99t-100.5 -65.5t-118.5 -23.5h-389zM246 164h225q63 0 107.5 44t44.5 107v95q0 63 -44 107t-108 44h-225v-397z M246 725h178q63 0 108.5 44t45.5 108v63q0 63 -45.5 107.5t-108.5 44.5h-178v-367z" />
<glyph unicode="C" horiz-adv-x="835" d="M61 424v407q0 90 31 168t84 136.5t126 92.5t157 34h53q88 0 154.5 -46.5t117.5 -103.5l-125 -108q-80 94 -147 94h-53q-47 0 -89 -18.5t-74 -53.5t-51.5 -84t-19.5 -111v-407q0 -61 19.5 -110.5t51.5 -84t74 -53t89 -18.5h53q37 0 71.5 22.5t75.5 69.5l125 -107 q-23 -27 -50 -53.5t-61 -48t-74 -34.5t-87 -13h-53q-84 0 -157 33.5t-126 92t-84 136.5t-31 168z" />
<glyph unicode="D" horiz-adv-x="913" d="M82 0v1255h356q82 0 154 -30.5t125 -85t83.5 -126t30.5 -153.5v-467q0 -82 -30.5 -153.5t-83.5 -125t-125 -84t-154 -30.5h-356zM246 164h192q47 0 89 18.5t73 49t49.5 72.5t18.5 89v467q0 47 -18.5 89t-49.5 74t-73 50.5t-89 18.5h-192v-928z" />
<glyph unicode="E" horiz-adv-x="800" d="M92 0v1255h627v-163h-463v-383h463v-164h-463v-381h463v-164h-627z" />
<glyph unicode="F" horiz-adv-x="770" d="M92 0v1255h627v-163h-463v-383h463v-164h-463v-545h-164z" />
<glyph unicode="G" horiz-adv-x="913" d="M82 430v401q0 90 30.5 168t84 136.5t126 92.5t156.5 34h78q88 0 155.5 -46.5t116.5 -103.5l-122 -108q-43 49 -79 71.5t-71 22.5h-78q-47 0 -89 -18.5t-73.5 -53.5t-51 -84t-19.5 -111v-401q0 -61 19.5 -110.5t51 -84t73.5 -53t89 -18.5h189v366h-240v164h403v-694h-352 q-84 0 -156.5 34t-126 92t-84 136t-30.5 168z" />
<glyph unicode="H" horiz-adv-x="925" d="M92 0v1255h164v-561h414v561h164v-1255h-164v530h-414v-530h-164z" />
<glyph unicode="I" horiz-adv-x="348" d="M92 0v1255h164v-1255h-164z" />
<glyph unicode="J" horiz-adv-x="845" d="M41 143l123 107q41 -47 76.5 -69.5t72.5 -22.5h54q45 0 88 20.5t74.5 57t51 87t19.5 111.5v821h164v-821q0 -90 -31 -170t-84 -140.5t-125.5 -95t-156.5 -34.5h-54q-47 0 -87 13t-73.5 34.5t-61.5 48.5t-50 53z" />
<glyph unicode="K" horiz-adv-x="913" d="M92 0v1255h164v-493l377 493h207l-469 -612l512 -643h-209l-418 526v-526h-164z" />
<glyph unicode="L" horiz-adv-x="751" d="M92 0v1255h164v-1091h465v-164h-629z" />
<glyph unicode="M" horiz-adv-x="1159" d="M92 0v1255h166l320 -505l321 505h168v-1253h-164v954l-258 -405h-135l-254 403v-954h-164z" />
<glyph unicode="N" horiz-adv-x="970" d="M92 2v1253h164l459 -895v895h164v-1253h-164l-459 895v-895h-164z" />
<glyph unicode="O" horiz-adv-x="954" d="M68 424v407q0 90 30.5 168t84 136.5t126 92.5t156.5 34h24q84 0 157 -34t126 -92.5t84 -136t31 -168.5v-407q0 -90 -31 -168t-84 -136.5t-126 -92t-157 -33.5h-24q-84 0 -156.5 33.5t-126 92t-84 136.5t-30.5 168zM231 424q0 -61 19.5 -110.5t51.5 -84t74 -53t89 -18.5 h24q45 0 88.5 18.5t75 53t51 83.5t19.5 111v407q0 61 -19.5 110.5t-51 84.5t-74.5 53.5t-89 18.5h-24q-47 0 -89 -18.5t-74 -53.5t-51.5 -84t-19.5 -111v-407z" />
<glyph unicode="P" horiz-adv-x="854" d="M92 0v1255h346q78 0 149.5 -26.5t126 -74.5t87.5 -115.5t33 -149.5v-47q0 -82 -33 -149.5t-87.5 -116t-126 -75t-149.5 -26.5h-182v-475h-164zM256 639h182q45 0 87 13.5t75 40t52.5 64.5t19.5 85v47q0 47 -19.5 85t-52.5 63.5t-75 40t-87 14.5h-182v-453z" />
<glyph unicode="Q" horiz-adv-x="983" d="M72 424v407q0 90 30.5 168t84 136.5t126 92.5t156.5 34h31q84 0 156.5 -34t126 -92.5t84 -136t30.5 -168.5v-407q0 -137 -70 -246l136 -133l-117 -117l-131 131q-47 -31 -101.5 -48t-113.5 -17h-31q-84 0 -156.5 33.5t-126 92t-84 136.5t-30.5 168zM236 424 q0 -61 19 -110.5t51 -84t74 -53t89 -18.5h31q47 0 96 22l-131 129l117 117l127 -127q24 49 24 119v6v407q0 61 -19.5 110.5t-51 84.5t-74.5 53.5t-88 18.5h-31q-47 0 -89 -18.5t-74 -53.5t-51 -84t-19 -111v-407z" />
<glyph unicode="R" horiz-adv-x="890" d="M92 0v1255h346q78 0 149.5 -26.5t126 -74.5t87.5 -115.5t33 -149.5v-47q0 -119 -64.5 -206t-163.5 -128l254 -508h-184l-238 475h-182v-475h-164zM256 639h182q53 0 96.5 16.5t74 45t47 64.5t16.5 77v47q0 39 -16.5 75.5t-47 65.5t-73.5 45.5t-97 16.5h-182v-453z" />
<glyph unicode="S" horiz-adv-x="821" d="M31 907q0 74 27.5 138.5t75.5 112.5t112.5 76t138.5 28h51q94 0 168 -44t133 -102l-116 -117q-96 98 -185 99h-51q-39 0 -74 -15.5t-60.5 -41t-40.5 -60.5t-15 -74q0 -41 15 -76.5t40.5 -62.5t60.5 -43t74 -16h51q74 0 138.5 -29t112.5 -78t76 -114.5t28 -139.5 t-28 -138.5t-76 -112.5t-112.5 -75.5t-138.5 -27.5h-82q-94 0 -167.5 43t-131.5 102l115 115q100 -96 184 -96h82q39 0 74 15t60.5 41t41 60.5t15.5 73.5t-15.5 75t-41 63.5t-60.5 43t-74 15.5h-51q-74 0 -138.5 28.5t-112.5 78.5t-75.5 116t-27.5 139z" />
<glyph unicode="T" horiz-adv-x="684" d="M0 1092v163h684v-163h-260v-1092h-164v1092h-260z" />
<glyph unicode="U" horiz-adv-x="966" d="M72 424v831h164v-831q0 -51 16 -99.5t46 -85t73 -59t98 -22.5h27q55 0 99 22.5t73.5 59t46 85t16.5 99.5v831h164v-831q0 -86 -28.5 -164t-82 -137.5t-127 -94t-161.5 -34.5h-27q-90 0 -163 34.5t-125 94t-80.5 137.5t-28.5 164z" />
<glyph unicode="V" horiz-adv-x="937" d="M0 1255h172l297 -956l299 956h170l-389 -1255h-158z" />
<glyph unicode="W" horiz-adv-x="1079" d="M20 1255h166l121 -893l152 453h162l151 -453l121 893h166l-172 -1255h-168l-180 541l-179 -541h-167z" />
<glyph unicode="X" horiz-adv-x="970" d="M31 0l362 680l-307 575h184l215 -403l215 403h185l-307 -575l362 -680h-184l-271 506l-268 -506h-186z" />
<glyph unicode="Y" horiz-adv-x="878" d="M10 1255h183l245 -491l246 491h184l-348 -694v-561h-164v561z" />
<glyph unicode="Z" horiz-adv-x="798" d="M41 0v166l528 926h-497v163h686v-165l-529 -926h514v-164h-702z" />
<glyph unicode="[" horiz-adv-x="516" d="M102 -252v1575h312v-162h-148v-1249h148v-164h-312z" />
<glyph unicode="\" horiz-adv-x="894" d="M51 1280h176l617 -1307h-176z" />
<glyph unicode="]" horiz-adv-x="516" d="M102 -88h148v1249h-148v162h312v-1575h-312v164z" />
<glyph unicode="_" horiz-adv-x="745" d="M0 -299h745v-111h-745v111z" />
<glyph unicode="`" horiz-adv-x="503" d="M113 1178h161l117 -232h-96z" />
<glyph unicode="a" horiz-adv-x="714" d="M31 272q0 57 21.5 106.5t58 86.5t87 58.5t105.5 21.5h78q63 0 117 -25v72q0 41 -28 77t-69 36h-114q-29 0 -54.5 -17.5t-46.5 -38.5l-110 111q43 43 96 71.5t115 28.5h114q51 0 97.5 -22.5t81 -59.5t54 -86t19.5 -100v-592h-155v27q-51 -27 -117 -27h-78 q-55 0 -105.5 21.5t-87 58.5t-58 87t-21.5 105zM186 272q0 -47 35 -81.5t82 -34.5h78q49 0 83 34.5t34 81.5q0 49 -34 83t-83 34h-78q-47 0 -82 -33.5t-35 -83.5z" />
<glyph unicode="b" horiz-adv-x="745" d="M72 0v1247h155v-428q35 23 75 33t81 10q63 0 120.5 -24.5t99.5 -67.5t66.5 -100.5t24.5 -120.5v-242q0 -66 -24.5 -122t-66.5 -98t-99.5 -66.5t-120.5 -24.5q-84 0 -156 41v-37h-155zM227 307q0 -66 45 -110.5t111 -44.5t111 45t45 110v242q0 66 -45 111t-111 45 t-111 -45.5t-45 -110.5v-242z" />
<glyph unicode="c" horiz-adv-x="632" d="M51 307v242q0 63 24.5 120.5t66.5 100.5t98.5 67.5t121.5 24.5h39q63 0 115.5 -29.5t95.5 -72.5l-110 -109q-18 18 -33.5 29.5t-30 16.5t-33 6.5t-43.5 1.5q-66 0 -110.5 -45.5t-44.5 -110.5v-242q0 -53 32.5 -95t84.5 -54q18 -6 38 -6h39q31 0 55.5 17t45.5 38l110 -111 q-59 -59 -112.5 -79.5t-137.5 -20.5q-66 0 -122 24.5t-98 66.5t-66.5 98.5t-24.5 121.5z" />
<glyph unicode="d" horiz-adv-x="745" d="M51 307v242q0 63 24.5 120.5t66.5 100.5t98.5 67.5t121.5 24.5q84 0 156 -43v428h156v-1247h-156v37q-72 -41 -156 -41q-66 0 -122 24.5t-98 66.5t-66.5 98.5t-24.5 121.5zM207 307q0 -66 45 -110.5t110 -44.5q66 0 111 45t45 110v242q0 66 -45 111t-111 45t-110.5 -45.5 t-44.5 -110.5v-242z" />
<glyph unicode="e" d="M51 307v242q0 63 24.5 120.5t66.5 100.5t98.5 67.5t121.5 24.5q63 0 121 -24.5t100 -67.5t66.5 -100.5t24.5 -120.5v-199h-467v-43q0 -66 45 -110.5t110 -44.5h78q31 0 55.5 17t47.5 38l108 -111q-43 -43 -94 -71.5t-117 -28.5h-78q-66 0 -122 24.5t-98 66.5t-66.5 98.5 t-24.5 121.5zM207 506h311v43q0 66 -45 111t-111 45t-110.5 -45.5t-44.5 -110.5v-43z" />
<glyph unicode="f" horiz-adv-x="589" d="M31 623v157h78v160q0 63 24.5 120.5t66.5 99.5t98 66.5t122 24.5q59 0 116.5 -22.5t104.5 -69.5l-111 -110q-47 47 -110 47q-66 0 -111 -45t-45 -111v-160h258v-157h-258v-623h-155v623h-78z" />
<glyph unicode="g" horiz-adv-x="745" d="M51 307v242q0 63 24.5 120.5t66.5 99.5t98.5 66.5t121.5 24.5q84 0 156 -41v37h156v-975q0 -55 -21.5 -105t-58.5 -87t-86 -58.5t-107 -21.5h-77q-61 0 -119 24.5t-101 67.5l111 111q47 -47 109 -48h77q49 0 83 35t34 82v156q-72 -41 -156 -41q-66 0 -122 24.5t-98 66.5 t-66.5 98.5t-24.5 121.5zM207 307q0 -66 45 -110.5t110 -44.5q66 0 111 45t45 108v244q0 66 -45 111t-111 45t-110.5 -45.5t-44.5 -110.5v-242z" />
<glyph unicode="h" horiz-adv-x="755" d="M72 0v1247h155v-428q35 20 75 31.5t81 11.5q63 0 120.5 -24.5t99.5 -67.5t66.5 -100.5t24.5 -120.5v-549h-155v549q0 66 -45 111t-111 45t-111 -45.5t-45 -110.5v-549h-155z" />
<glyph unicode="i" horiz-adv-x="299" d="M72 0v858h155v-858h-155zM72 1014v155h155v-155h-155z" />
<glyph unicode="j" horiz-adv-x="346" d="M-307 -299l110 111q47 -47 109 -48h80q47 0 82 35t35 82v975h155v-975q0 -55 -21.5 -105t-58.5 -87t-87 -58.5t-105 -21.5h-80q-59 0 -115.5 22.5t-103.5 69.5zM109 1012v155h155v-155h-155z" />
<glyph unicode="k" horiz-adv-x="735" d="M72 0v1247h155v-735l273 344h202l-327 -407l350 -449h-201l-297 383v-383h-155z" />
<glyph unicode="l" horiz-adv-x="393" d="M72 262v985h155v-985q0 -47 35 -82t82 -35h39v-155h-39q-55 0 -105.5 21.5t-87 58t-58 87t-21.5 105.5z" />
<glyph unicode="m" horiz-adv-x="1069" d="M72 0v858h155v-22q57 26 113 26h4q55 0 105.5 -21.5t89.5 -60.5q39 39 90 60.5t104 21.5q57 0 107.5 -21.5t87.5 -58.5t58.5 -87t21.5 -107v-588h-156v588q0 49 -35 83t-84 34q-47 0 -82 -34t-35 -83v-588h-155v588q0 49 -34 83t-83 34q-47 0 -82 -34t-35 -83v-588h-155z " />
<glyph unicode="n" horiz-adv-x="755" d="M72 0v858h155v-39q35 20 75 31.5t81 11.5q63 0 120.5 -24.5t99.5 -67.5t66.5 -100.5t24.5 -120.5v-549h-155v549q0 66 -45 111t-111 45t-111 -45.5t-45 -110.5v-549h-155z" />
<glyph unicode="o" d="M51 307v242q0 63 24.5 120.5t66.5 100.5t98.5 67.5t121.5 24.5q63 0 121 -24.5t100 -67.5t66.5 -100.5t24.5 -120.5v-242q0 -66 -24.5 -122t-66.5 -98t-99.5 -66.5t-121.5 -24.5q-66 0 -122 24.5t-98 66.5t-66.5 98.5t-24.5 121.5zM207 307q0 -66 45 -110.5t110 -44.5 q66 0 111 45t45 110v242q0 66 -45 111t-111 45t-110.5 -45.5t-44.5 -110.5v-242z" />
<glyph unicode="p" horiz-adv-x="745" d="M72 -389v1247h155v-39q35 23 75 33t81 10q63 0 120.5 -24.5t99.5 -67.5t66.5 -100.5t24.5 -120.5v-242q0 -66 -24.5 -122t-66.5 -98t-99.5 -66.5t-120.5 -24.5q-84 0 -156 41v-426h-155zM227 307q0 -66 45 -110.5t111 -44.5t111 45t45 110v242q0 66 -45 111t-111 45 t-111 -45.5t-45 -110.5v-242z" />
<glyph unicode="q" horiz-adv-x="745" d="M51 307v242q0 63 24.5 120.5t66.5 100.5t98.5 67.5t121.5 24.5q41 0 81 -4t75 -39v39h156v-1247h-156v426q-72 -41 -156 -41q-66 0 -122 24.5t-98 66.5t-66.5 98.5t-24.5 121.5zM207 307q0 -66 45 -110.5t110 -44.5q66 0 111 45t45 110v242q0 66 -45 111t-111 45 t-110.5 -45.5t-44.5 -110.5v-242z" />
<glyph unicode="r" horiz-adv-x="622" d="M72 0v858h155v-39q35 23 75 33t81 10h39q63 0 115.5 -29.5t95.5 -72.5l-111 -109q-20 20 -45.5 37t-54.5 17h-39q-66 0 -111 -45.5t-45 -110.5v-549h-155z" />
<glyph unicode="s" horiz-adv-x="686" d="M51 608q0 51 19.5 98.5t54.5 81t81 54t99 20.5h86q63 0 115.5 -29.5t95.5 -72.5l-110 -109q-18 20 -44 37t-57 17h-86q-41 0 -69.5 -28t-28.5 -69t28.5 -71.5t69.5 -30.5h86q51 0 98.5 -20.5t81 -55.5t54 -82t20.5 -98q0 -53 -20.5 -99.5t-54 -81t-81 -54t-98.5 -19.5 h-117q-63 0 -115.5 28.5t-95.5 71.5l111 111q20 -20 46 -37.5t54 -17.5h117q41 0 69.5 28.5t28.5 69.5t-28.5 70.5t-69.5 29.5h-86q-53 0 -99 20.5t-81 56.5t-54.5 82t-19.5 99z" />
<glyph unicode="t" horiz-adv-x="634" d="M20 700v158h64v201h156v-201h278v-158h-278v-393q0 -53 32.5 -95t83.5 -54q18 -6 39 -6h39q25 0 49.5 13t53.5 42l108 -111q-35 -35 -87 -67.5t-124 -32.5h-39q-66 0 -122 24.5t-98 66.5t-66.5 98.5t-24.5 121.5v393h-64z" />
<glyph unicode="u" horiz-adv-x="755" d="M61 307v551h156v-551q0 -66 45 -110.5t111 -44.5t110.5 45t44.5 110v551h156v-858h-156v39q-72 -43 -155 -43q-66 0 -122 24.5t-98 66.5t-67 98.5t-25 121.5z" />
<glyph unicode="v" horiz-adv-x="741" d="M10 858h164l197 -588l196 588h164l-287 -858h-147z" />
<glyph unicode="w" horiz-adv-x="1112" d="M10 858h162l152 -547l151 547h162l151 -547l152 547h162l-238 -858h-149l-158 567l-158 -567h-151z" />
<glyph unicode="x" horiz-adv-x="679" d="M10 0l240 440l-225 418h176l139 -254l137 254h178l-227 -418l242 -440h-178l-152 279l-152 -279h-178z" />
<glyph unicode="y" horiz-adv-x="741" d="M10 858h164l197 -588l196 588h164l-354 -1059q-27 -82 -97.5 -135t-162.5 -53h-21v156h21q41 0 70.5 23.5t41.5 57.5l60 177z" />
<glyph unicode="z" horiz-adv-x="647" d="M51 0v156l361 544h-340v158h524v-158l-360 -544h360v-156h-545z" />
<glyph unicode="{" horiz-adv-x="559" d="M61 584v164q63 0 92 27.5t29 45.5v256q0 80 28 130t68.5 78t91 38t97.5 10v-164q-70 0 -95.5 -19.5t-25.5 -72.5v-256q0 -49 -19.5 -88t-47.5 -67q29 -29 48 -68t19 -88v-254q0 -53 25.5 -72.5t95.5 -19.5v-164q-47 0 -97.5 10t-91 38t-68.5 78t-28 130v254 q0 20 -28.5 47t-92.5 27z" />
<glyph unicode="|" horiz-adv-x="358" d="M92 -270v1677h164v-1677h-164z" />
<glyph unicode="}" horiz-adv-x="559" d="M92 0v164q70 0 95.5 19.5t25.5 72.5v254q0 49 18.5 88t49.5 68q-31 29 -49.5 67.5t-18.5 87.5v256q0 53 -25.5 72.5t-95.5 19.5v164q45 0 95.5 -10t92.5 -38t69.5 -78t27.5 -130v-256q0 -18 28.5 -45.5t92.5 -27.5v-164q-63 0 -92 -27t-29 -47v-254q0 -80 -27.5 -130 t-69.5 -78t-92.5 -38t-95.5 -10z" />
<glyph unicode="&#xa1;" horiz-adv-x="419" d="M92 0v932h164v-932h-164zM92 1092v163h164v-163h-164z" />
<glyph unicode="&#xa2;" d="M82 459v233q0 66 24.5 123t66.5 99t98.5 67t121.5 25h39q8 0 14.5 -1t14.5 -1l22 79h105l-31 -112q49 -29 86 -68l-111 -108q-4 4 -10 9t-10 9l-145 -508q6 0 13 -1t13 -1h39q45 0 100 55l111 -110q-35 -35 -87 -68t-124 -33h-39q-39 0 -69 9l-25 -86h-106l36 125 q-66 41 -106.5 110.5t-40.5 153.5zM238 459q0 -57 36 -101l142 492h-23q-66 0 -110.5 -46t-44.5 -112v-233z" />
<glyph unicode="&#xa3;" horiz-adv-x="970" d="M92 117q8 10 17 24q8 12 17 27.5t19 38.5q23 45 39.5 102.5t16.5 120.5v115h-103v164h103v155q0 184 100 287.5t268 103.5h23q90 0 156.5 -46t115.5 -103l-123 -109q-43 49 -78.5 72t-70.5 23h-23q-96 0 -150 -53.5t-54 -174.5v-155h249v-164h-249v-115 q0 -59 -11.5 -113.5t-27.5 -101.5q51 10 96 10q37 0 70.5 -9t67.5 -21.5t66.5 -21.5t69.5 -9q35 0 55.5 11t59.5 46l109 -123q-41 -37 -91.5 -67.5t-132.5 -30.5q-39 0 -73.5 9t-68.5 21.5t-66.5 21.5t-65.5 9q-37 0 -76 -10t-71.5 -22.5t-54.5 -23.5l-23 -11z" />
<glyph unicode="&#xa5;" horiz-adv-x="1001" d="M72 1255h182l246 -491l245 491h185l-305 -608h204v-164h-247v-102h247v-162h-247v-219h-164v219h-244v162h244v102h-244v164h201z" />
<glyph unicode="&#xa8;" d="M133 961v155h156v-155h-156zM444 961v155h156v-155h-156z" />
<glyph unicode="&#xa9;" horiz-adv-x="1415" d="M92 629q0 129 48 242.5t132 199.5t196 135t241 49q127 0 239.5 -49t195.5 -135t131 -199.5t48 -242.5t-48 -244t-131 -201t-195.5 -135t-239.5 -49q-129 0 -241 49t-196 135t-132 201t-48 244zM231 629q0 -102 38 -191.5t102.5 -156t151.5 -104.5t186 -38q98 0 184 38 t150.5 104.5t102.5 156t38 191.5q0 100 -38 189t-102.5 155.5t-150.5 104.5t-184 38t-185.5 -38t-152 -104.5t-102.5 -155.5t-38 -189zM459 535v186q0 51 19.5 97t53 80t78.5 53.5t99 19.5h30q53 0 95.5 -24.5t72.5 -55.5l-88 -88q-43 43 -80 43h-30q-53 0 -89 -36t-36 -89 v-186q0 -53 35.5 -89t89.5 -36h30q35 0 80 45l88 -90q-29 -29 -69.5 -54.5t-98.5 -25.5h-30q-53 0 -98.5 19.5t-79 53t-53 79.5t-19.5 98z" />
<glyph unicode="&#xab;" horiz-adv-x="759" d="M61 406l254 325l84 -67l-200 -258l200 -259l-84 -67zM350 406l254 325l84 -67l-203 -258l203 -259l-84 -67z" />
<glyph unicode="&#xad;" horiz-adv-x="929" d="M92 469v162h746v-162h-746z" />
<glyph unicode="&#xae;" horiz-adv-x="1415" d="M92 629q0 129 48 242.5t132 199.5t196 135t241 49q127 0 239.5 -49t195.5 -135t131 -199.5t48 -242.5t-48 -244t-131 -201t-195.5 -135t-239.5 -49q-129 0 -241 49t-196 135t-132 201t-48 244zM231 629q0 -102 38 -191.5t102.5 -156t151.5 -104.5t186 -38q98 0 184 38 t150.5 104.5t102.5 156t38 191.5q0 100 -38 189t-102.5 155.5t-150.5 104.5t-184 38t-185.5 -38t-152 -104.5t-102.5 -155.5t-38 -189zM506 297v670h217q45 0 85 -15.5t70.5 -42t49 -65.5t18.5 -84v-25q0 -59 -31.5 -108t-85.5 -76l127 -254h-139l-115 229h-71v-229h-125z M631 651h92q47 0 72.5 25.5t25.5 58.5v25q0 31 -25.5 56.5t-72.5 25.5h-92v-191z" />
<glyph unicode="&#xaf;" d="M127 1008v129h494v-129h-494z" />
<glyph unicode="&#xb0;" horiz-adv-x="626" d="M113 1057q0 84 58 142t142 58t142.5 -58t58.5 -142t-58.5 -142.5t-142.5 -58.5t-142 58.5t-58 142.5zM186 1057q0 -53 37 -90t90 -37t89 37t36 90t-35.5 90t-89.5 37q-53 0 -90 -37t-37 -90z" />
<glyph unicode="&#xb4;" horiz-adv-x="503" d="M113 946l118 232h160l-182 -232h-96z" />
<glyph unicode="&#xb6;" horiz-adv-x="954" d="M51 928q0 68 25.5 127t71 104t104.5 70.5t127 25.5h92h391v-1466h-141v1325h-109v-1325h-141v811h-92q-68 0 -127 25.5t-104.5 70.5t-71 104.5t-25.5 127.5z" />
<glyph unicode="&#xb8;" horiz-adv-x="1024" d="M248 -287l18 72q16 -4 27.5 -8t23.5 -8t26.5 -4.5t37.5 -0.5q29 0 53.5 13.5t24.5 42.5q0 37 -33 47q-27 10 -104 10v135h84v-69q68 0 106.5 -33t38.5 -86q0 -61 -51 -100t-119 -39q-45 0 -72 8q-12 4 -26.5 9t-34.5 11z" />
<glyph unicode="&#xbb;" horiz-adv-x="759" d="M72 147l202 259l-202 258l84 67l254 -325l-254 -326zM360 147l201 259l-201 258l84 67l254 -325l-254 -326z" />
<glyph unicode="&#xbf;" horiz-adv-x="819" d="M82 354v70q0 68 23.5 127t63.5 106.5t95 78t119 40.5v178h162v-338h-109q-39 0 -73.5 -15t-60.5 -40.5t-41 -61.5t-15 -75v-70q0 -39 15 -73.5t41 -60t60.5 -41t73.5 -15.5h51q88 0 185 96l116 -115q-59 -59 -132.5 -102t-168.5 -43h-51q-74 0 -138.5 27.5t-112.5 76 t-75.5 113t-27.5 137.5zM383 1092v163h164v-163h-164z" />
<glyph unicode="&#xc0;" horiz-adv-x="937" d="M0 0l391 1255h156l391 -1255h-170l-117 371h-364l-117 -371h-170zM225 1579h160l119 -231h-96zM338 535h262l-131 421z" />
<glyph unicode="&#xc1;" horiz-adv-x="937" d="M0 0h170l117 371h364l117 -371h170l-391 1255h-156zM338 535l131 421l131 -421h-262zM412 1348l118 231h162l-184 -231h-96z" />
<glyph unicode="&#xc2;" horiz-adv-x="937" d="M0 0l391 1255h156l391 -1255h-170l-117 371h-364l-117 -371h-170zM207 1337l199 256h129l198 -256h-155l-107 140l-109 -140h-155zM338 535h262l-131 421z" />
<glyph unicode="&#xc3;" horiz-adv-x="937" d="M0 0l391 1255h156l391 -1255h-170l-117 371h-364l-117 -371h-170zM166 1337q6 39 20.5 76t38 65.5t56 46t77.5 17.5q41 0 80 -19.5t80 -31.5q27 -10 51 -10q37 0 59.5 19.5t35.5 51.5h88q-8 -41 -22.5 -77.5t-38 -65.5t-57.5 -46t-79 -17q-41 0 -80 19t-78 32 q-31 10 -53 10q-35 0 -56.5 -20.5t-33.5 -49.5h-88zM338 535h262l-131 421z" />
<glyph unicode="&#xc4;" horiz-adv-x="937" d="M0 0l391 1255h156l391 -1255h-170l-117 371h-364l-117 -371h-170zM240 1346v155h155v-155h-155zM338 535h262l-131 421zM551 1346v155h156v-155h-156z" />
<glyph unicode="&#xc5;" horiz-adv-x="937" d="M0 0l391 1255h156l391 -1255h-170l-117 371h-364l-117 -371h-170zM311 1458q0 66 45 111t109 45q66 0 111 -45t45 -111q0 -63 -45.5 -108t-110.5 -45q-63 0 -108.5 45t-45.5 108zM338 535h262l-131 421zM393 1458q0 -29 21.5 -50.5t50.5 -21.5q31 0 52.5 21.5t21.5 50.5 q0 31 -21.5 52.5t-52.5 21.5q-29 0 -50.5 -21.5t-21.5 -52.5z" />
<glyph unicode="&#xc6;" horiz-adv-x="1458" d="M20 0l650 1255h706v-163h-465v-383h465v-164h-465v-381h465v-164h-626v381h-349l-196 -381h-185zM487 545h263v506z" />
<glyph unicode="&#xc7;" horiz-adv-x="835" d="M61 424v407q0 90 31 168t84 136.5t126 92.5t157 34h53q88 0 154.5 -46.5t117.5 -103.5l-125 -108q-80 94 -147 94h-53q-47 0 -89 -18.5t-74 -53.5t-51.5 -84t-19.5 -111v-407q0 -61 19.5 -110.5t51.5 -84t74 -53t89 -18.5h53q37 0 71.5 22.5t75.5 69.5l125 -107 q-23 -27 -50 -53.5t-61 -48t-74 -34.5t-87 -13h-53q-84 0 -157 33.5t-126 92t-84 136.5t-31 168zM346 -287l19 72q16 -4 27 -8t24 -8q12 -4 26.5 -4.5t36.5 -0.5q29 0 53.5 13.5t24.5 42.5q0 37 -33 47q-27 10 -104 10v135h84v-69q68 0 106.5 -33t38.5 -86q0 -61 -51 -100 t-119 -39q-45 0 -71 8q-12 4 -26.5 9t-35.5 11z" />
<glyph unicode="&#xc8;" horiz-adv-x="800" d="M92 0v1255h627v-163h-463v-383h463v-164h-463v-381h463v-164h-627zM166 1579h160l118 -231h-96z" />
<glyph unicode="&#xc9;" horiz-adv-x="800" d="M92 0h627v164h-463v381h463v164h-463v383h463v163h-627v-1255zM303 1348l119 231h162l-185 -231h-96z" />
<glyph unicode="&#xca;" horiz-adv-x="800" d="M92 0v1255h627v-163h-463v-383h463v-164h-463v-381h463v-164h-627zM129 1337l199 256h129l198 -256h-155l-109 140l-106 -140h-156z" />
<glyph unicode="&#xcb;" horiz-adv-x="800" d="M92 0v1255h627v-163h-463v-383h463v-164h-463v-381h463v-164h-627zM168 1346v155h156v-155h-156zM479 1346v155h156v-155h-156z" />
<glyph unicode="&#xcc;" horiz-adv-x="348" d="M-53 1579h162l116 -231h-96zM92 0v1255h164v-1255h-164z" />
<glyph unicode="&#xcd;" horiz-adv-x="348" d="M92 0h164v1255h-164v-1255zM98 1348l119 231h160l-182 -231h-97z" />
<glyph unicode="&#xce;" horiz-adv-x="348" d="M-82 1337l199 256h129l198 -256h-155l-107 140l-108 -140h-156zM92 0v1255h164v-1255h-164z" />
<glyph unicode="&#xcf;" horiz-adv-x="348" d="M-63 1346v155h157v-155h-157zM92 0v1255h164v-1255h-164zM250 1346v155h156v-155h-156z" />
<glyph unicode="&#xd0;" horiz-adv-x="1642" d="M0 0v1642h1642v-1642h-1642zM154 154h153v258h-51v-105h-102v-153zM205 205v51h51v-51h-51zM358 154h154v153h-49v-102h-51v102h-54v-153zM565 154h154v153h-103v105h-51v-258zM616 205v51h52v-51h-52zM770 154h51v153h-51v-153zM770 358h51v54h-51v-54zM872 154h154v153 h-51v-102h-51v102h-52v-153zM1077 154h105v102h51v51h-105v-102h-51v-51zM1335 358h103v-51h-52v-51h103v156h-154v-54zM1386 154h52v51h-52v-51z" />
<glyph unicode="&#xd1;" horiz-adv-x="970" d="M92 2v1253h164l459 -895v895h164v-1253h-164l-459 895v-895h-164zM199 1337q6 39 20 76t38 65.5t56.5 46t77.5 17.5q41 0 80 -19.5t78 -31.5q31 -10 53 -10q37 0 59.5 19.5t34.5 51.5h88q-8 -41 -22 -77.5t-38 -65.5t-57.5 -46t-78.5 -17q-41 0 -80 19t-80 32 q-27 10 -51 10q-35 0 -56.5 -20.5t-33.5 -49.5h-88z" />
<glyph unicode="&#xd2;" horiz-adv-x="962" d="M68 424v407q0 90 30.5 168t84 136.5t126 92.5t156.5 34h24q84 0 157 -34t126 -92.5t84 -136t31 -168.5v-407q0 -90 -31 -168t-84 -136.5t-126 -92t-157 -33.5h-24q-84 0 -156.5 33.5t-126 92t-84 136.5t-30.5 168zM213 1579h160l119 -231h-97zM231 424q0 -61 19.5 -110.5 t51.5 -84t74 -53t89 -18.5h24q45 0 88.5 18.5t75 53t51 83.5t19.5 111v407q0 61 -19.5 110.5t-51 84.5t-74.5 53.5t-89 18.5h-24q-47 0 -89 -18.5t-74 -53.5t-51.5 -84t-19.5 -111v-407z" />
<glyph unicode="&#xd3;" horiz-adv-x="962" d="M68 424q0 -90 30.5 -168t84 -136.5t126 -92t156.5 -33.5h24q84 0 157 33.5t126 92t84 136.5t31 168v407q0 90 -31 168t-84 136.5t-126 92.5t-157 34h-24q-84 0 -156.5 -34t-126 -92.5t-84 -136t-30.5 -168.5v-407zM231 424v407q0 61 19.5 110.5t51.5 84.5t74 53.5 t89 18.5h24q45 0 88.5 -18.5t75 -53.5t51 -84t19.5 -111v-407q0 -61 -19.5 -110.5t-51 -84t-74.5 -53t-89 -18.5h-24q-47 0 -89 18.5t-74 53t-51.5 83.5t-19.5 111zM424 1348l119 231h162l-185 -231h-96z" />
<glyph unicode="&#xd4;" horiz-adv-x="962" d="M68 424v407q0 90 30.5 168t84 136.5t126 92.5t156.5 34h24q84 0 157 -34t126 -92.5t84 -136t31 -168.5v-407q0 -90 -31 -168t-84 -136.5t-126 -92t-157 -33.5h-24q-84 0 -156.5 33.5t-126 92t-84 136.5t-30.5 168zM219 1337l199 256h129l198 -256h-155l-107 140 l-108 -140h-156zM231 424q0 -61 19.5 -110.5t51.5 -84t74 -53t89 -18.5h24q45 0 88.5 18.5t75 53t51 83.5t19.5 111v407q0 61 -19.5 110.5t-51 84.5t-74.5 53.5t-89 18.5h-24q-47 0 -89 -18.5t-74 -53.5t-51.5 -84t-19.5 -111v-407z" />
<glyph unicode="&#xd5;" horiz-adv-x="962" d="M68 424v407q0 90 30.5 168t84 136.5t126 92.5t156.5 34h24q84 0 157 -34t126 -92.5t84 -136t31 -168.5v-407q0 -90 -31 -168t-84 -136.5t-126 -92t-157 -33.5h-24q-84 0 -156.5 33.5t-126 92t-84 136.5t-30.5 168zM186 1337q6 39 20.5 76t38 65.5t56.5 46t78 17.5 q41 0 80 -19.5t78 -31.5q31 -10 53 -10q37 0 59.5 19.5t34.5 51.5h88q-8 -41 -22.5 -77.5t-38 -65.5t-57 -46t-79.5 -17q-41 0 -79.5 19t-79.5 32q-27 10 -51 10q-35 0 -56.5 -20.5t-34.5 -49.5h-88zM231 424q0 -61 19.5 -110.5t51.5 -84t74 -53t89 -18.5h24q45 0 88.5 18.5 t75 53t51 83.5t19.5 111v407q0 61 -19.5 110.5t-51 84.5t-74.5 53.5t-89 18.5h-24q-47 0 -89 -18.5t-74 -53.5t-51.5 -84t-19.5 -111v-407z" />
<glyph unicode="&#xd6;" horiz-adv-x="962" d="M68 424v407q0 90 30.5 168t84 136.5t126 92.5t156.5 34h24q84 0 157 -34t126 -92.5t84 -136t31 -168.5v-407q0 -90 -31 -168t-84 -136.5t-126 -92t-157 -33.5h-24q-84 0 -156.5 33.5t-126 92t-84 136.5t-30.5 168zM231 424q0 -61 19.5 -110.5t51.5 -84t74 -53t89 -18.5 h24q45 0 88.5 18.5t75 53t51 83.5t19.5 111v407q0 61 -19.5 110.5t-51 84.5t-74.5 53.5t-89 18.5h-24q-47 0 -89 -18.5t-74 -53.5t-51.5 -84t-19.5 -111v-407zM244 1346v155h155v-155h-155zM555 1346v155h156v-155h-156z" />
<glyph unicode="&#xd8;" horiz-adv-x="962" d="M72 424v407q0 90 30.5 168t84 136.5t126 92.5t156.5 34h23q51 0 97 -12.5t87 -35.5l53 113h156l-97 -207q47 -57 75 -129.5t28 -159.5v-407q0 -90 -31 -168t-84 -136.5t-125.5 -92t-158.5 -33.5h-23q-100 0 -182 47l-54 -115h-157l98 207q-49 57 -75.5 131t-26.5 160z M236 424q0 -66 20 -113l350 754q-55 33 -114 33h-23q-47 0 -89 -18.5t-74 -53.5t-51 -84t-19 -111v-407zM356 190q47 -33 113 -32h23q47 0 90 18.5t74.5 53t51 83.5t19.5 111v407q0 31 -5 59t-15 54z" />
<glyph unicode="&#xd9;" horiz-adv-x="966" d="M72 424v831h164v-831q0 -51 16 -99.5t46 -85t73 -59t98 -22.5h27q55 0 99 22.5t73.5 59t46 85t16.5 99.5v831h164v-831q0 -86 -28.5 -164t-82 -137.5t-127 -94t-161.5 -34.5h-27q-90 0 -163 34.5t-125 94t-80.5 137.5t-28.5 164zM244 1579h162l118 -231h-96z" />
<glyph unicode="&#xda;" horiz-adv-x="966" d="M72 424q0 -86 28.5 -164t80.5 -137.5t125 -94t163 -34.5h27q88 0 161.5 34.5t127 94t82 137.5t28.5 164v831h-164v-831q0 -51 -16.5 -99.5t-46 -85t-73.5 -59t-99 -22.5h-27q-55 0 -98 22.5t-73 59t-46 85t-16 99.5v831h-164v-831zM424 1348l119 231h162l-185 -231h-96z " />
<glyph unicode="&#xdb;" horiz-adv-x="966" d="M72 424v831h164v-831q0 -51 16 -99.5t46 -85t73 -59t98 -22.5h27q55 0 99 22.5t73.5 59t46 85t16.5 99.5v831h164v-831q0 -86 -28.5 -164t-82 -137.5t-127 -94t-161.5 -34.5h-27q-90 0 -163 34.5t-125 94t-80.5 137.5t-28.5 164zM219 1343l199 256h129l198 -256h-155 l-107 138l-108 -138h-156z" />
<glyph unicode="&#xdc;" horiz-adv-x="966" d="M72 424v831h164v-831q0 -51 16 -99.5t46 -85t73 -59t98 -22.5h27q55 0 99 22.5t73.5 59t46 85t16.5 99.5v831h164v-831q0 -86 -28.5 -164t-82 -137.5t-127 -94t-161.5 -34.5h-27q-90 0 -163 34.5t-125 94t-80.5 137.5t-28.5 164zM250 1346v155h156v-155h-156zM561 1346 v155h156v-155h-156z" />
<glyph unicode="&#xe0;" horiz-adv-x="714" d="M31 272q0 57 21.5 106.5t58 86.5t87 58.5t105.5 21.5h78q63 0 117 -25v72q0 41 -28 77t-69 36h-114q-29 0 -54.5 -17.5t-46.5 -38.5l-110 111q43 43 96 71.5t115 28.5h114q51 0 97.5 -22.5t81 -59.5t54 -86t19.5 -100v-592h-155v27q-51 -27 -117 -27h-78 q-55 0 -105.5 21.5t-87 58.5t-58 87t-21.5 105zM113 1178h161l117 -232h-96zM186 272q0 -47 35 -81.5t82 -34.5h78q49 0 83 34.5t34 81.5q0 49 -34 83t-83 34h-78q-47 0 -82 -33.5t-35 -83.5z" />
<glyph unicode="&#xe1;" horiz-adv-x="714" d="M31 272q0 57 21.5 106.5t58 86.5t87 58.5t105.5 21.5h78q63 0 117 -25v72q0 41 -28 77t-69 36h-114q-29 0 -54.5 -17.5t-46.5 -38.5l-110 111q43 43 96 71.5t115 28.5h114q51 0 97.5 -22.5t81 -59.5t54 -86t19.5 -100v-592h-155v27q-51 -27 -117 -27h-78 q-55 0 -105.5 21.5t-87 58.5t-58 87t-21.5 105zM186 272q0 -47 35 -81.5t82 -34.5h78q49 0 83 34.5t34 81.5q0 49 -34 83t-83 34h-78q-47 0 -82 -33.5t-35 -83.5zM281 946l118 232h160l-182 -232h-96z" />
<glyph unicode="&#xe2;" horiz-adv-x="714" d="M31 272q0 57 21.5 106.5t58 86.5t87 58.5t105.5 21.5h78q63 0 117 -25v72q0 41 -28 77t-69 36h-114q-29 0 -54.5 -17.5t-46.5 -38.5l-110 111q43 43 96 71.5t115 28.5h114q51 0 97.5 -22.5t81 -59.5t54 -86t19.5 -100v-592h-155v27q-51 -27 -117 -27h-78 q-55 0 -105.5 21.5t-87 58.5t-58 87t-21.5 105zM96 932l199 256h129l199 -256h-156l-107 139l-108 -139h-156zM186 272q0 -47 35 -81.5t82 -34.5h78q49 0 83 34.5t34 81.5q0 49 -34 83t-83 34h-78q-47 0 -82 -33.5t-35 -83.5z" />
<glyph unicode="&#xe3;" horiz-adv-x="714" d="M31 272q0 57 21.5 106.5t58 86.5t87 58.5t105.5 21.5h78q63 0 117 -25v72q0 41 -28 77t-69 36h-114q-29 0 -54.5 -17.5t-46.5 -38.5l-110 111q43 43 96 71.5t115 28.5h114q51 0 97.5 -22.5t81 -59.5t54 -86t19.5 -100v-592h-155v27q-51 -27 -117 -27h-78 q-55 0 -105.5 21.5t-87 58.5t-58 87t-21.5 105zM59 940q6 39 20.5 76t38 65.5t56.5 46t78 17.5q41 0 80 -19.5t80 -33.5q23 -8 51 -9q37 0 59.5 18.5t34.5 53.5h88q-8 -41 -22.5 -78t-38 -65.5t-57 -46t-78.5 -17.5q-41 0 -80 19.5t-80 31.5q-27 10 -51 11 q-35 0 -56.5 -20.5t-34.5 -49.5h-88zM186 272q0 -47 35 -81.5t82 -34.5h78q49 0 83 34.5t34 81.5q0 49 -34 83t-83 34h-78q-47 0 -82 -33.5t-35 -83.5z" />
<glyph unicode="&#xe4;" horiz-adv-x="714" d="M31 272q0 57 21.5 106.5t58 86.5t87 58.5t105.5 21.5h78q63 0 117 -25v72q0 41 -28 77t-69 36h-114q-29 0 -54.5 -17.5t-46.5 -38.5l-110 111q43 43 96 71.5t115 28.5h114q51 0 97.5 -22.5t81 -59.5t54 -86t19.5 -100v-592h-155v27q-51 -27 -117 -27h-78 q-55 0 -105.5 21.5t-87 58.5t-58 87t-21.5 105zM115 961v155h155v-155h-155zM186 272q0 -47 35 -81.5t82 -34.5h78q49 0 83 34.5t34 81.5q0 49 -34 83t-83 34h-78q-47 0 -82 -33.5t-35 -83.5zM426 961v155h156v-155h-156z" />
<glyph unicode="&#xe5;" horiz-adv-x="714" d="M31 272q0 57 21.5 106.5t58 86.5t87 58.5t105.5 21.5h78q63 0 117 -25v72q0 41 -28 77t-69 36h-114q-29 0 -54.5 -17.5t-46.5 -38.5l-110 111q43 43 96 71.5t115 28.5h114q51 0 97.5 -22.5t81 -59.5t54 -86t19.5 -100v-592h-155v27q-51 -27 -117 -27h-78 q-55 0 -105.5 21.5t-87 58.5t-58 87t-21.5 105zM186 272q0 -47 35 -81.5t82 -34.5h78q49 0 83 34.5t34 81.5q0 49 -34 83t-83 34h-78q-47 0 -82 -33.5t-35 -83.5zM203 1075q0 66 45 110t110 44q63 0 108.5 -44t45.5 -110t-45 -109.5t-109 -43.5q-66 0 -110.5 44t-44.5 109z M285 1075q0 -31 21.5 -51t51.5 -20q29 0 50.5 20t21.5 51t-21.5 51.5t-50.5 20.5q-31 0 -52 -20.5t-21 -51.5z" />
<glyph unicode="&#xe7;" horiz-adv-x="632" d="M51 307v242q0 63 24.5 120.5t66.5 100.5t98.5 67.5t121.5 24.5h39q63 0 115.5 -29.5t95.5 -72.5l-110 -109q-18 18 -33.5 29.5t-30 16.5t-33 6.5t-43.5 1.5q-66 0 -110.5 -45.5t-44.5 -110.5v-242q0 -53 32.5 -95t84.5 -54q18 -6 38 -6h39q31 0 55.5 17t45.5 38l110 -111 q-59 -59 -112.5 -79.5t-137.5 -20.5q-66 0 -122 24.5t-98 66.5t-66.5 98.5t-24.5 121.5zM248 -287l18 72q16 -4 27.5 -8t23.5 -8t26.5 -4.5t37.5 -0.5q29 0 53.5 13.5t24.5 42.5q0 37 -33 47q-27 10 -104 10v135h84v-69q68 0 106.5 -33t38.5 -86q0 -61 -51 -100t-119 -39 q-45 0 -72 8q-12 4 -26.5 9t-34.5 11z" />
<glyph unicode="&#xe8;" d="M51 307v242q0 63 24.5 120.5t66.5 100.5t98.5 67.5t121.5 24.5q63 0 121 -24.5t100 -67.5t66.5 -100.5t24.5 -120.5v-199h-467v-43q0 -66 45 -110.5t110 -44.5h78q31 0 55.5 17t47.5 38l108 -111q-43 -43 -94 -71.5t-117 -28.5h-78q-66 0 -122 24.5t-98 66.5t-66.5 98.5 t-24.5 121.5zM113 1178h161l117 -232h-96zM207 506h311v43q0 66 -45 111t-111 45t-110.5 -45.5t-44.5 -110.5v-43z" />
<glyph unicode="&#xe9;" d="M51 307v242q0 63 24.5 120.5t66.5 100.5t98.5 67.5t121.5 24.5q63 0 121 -24.5t100 -67.5t66.5 -100.5t24.5 -120.5v-199h-467v-43q0 -66 45 -110.5t110 -44.5h78q31 0 55.5 17t47.5 38l108 -111q-43 -43 -94 -71.5t-117 -28.5h-78q-66 0 -122 24.5t-98 66.5t-66.5 98.5 t-24.5 121.5zM207 506h311v43q0 66 -45 111t-111 45t-110.5 -45.5t-44.5 -110.5v-43zM324 946l116 232h162l-184 -232h-94z" />
<glyph unicode="&#xea;" d="M51 307v242q0 63 24.5 120.5t66.5 100.5t98.5 67.5t121.5 24.5q63 0 121 -24.5t100 -67.5t66.5 -100.5t24.5 -120.5v-199h-467v-43q0 -66 45 -110.5t110 -44.5h78q31 0 55.5 17t47.5 38l108 -111q-43 -43 -94 -71.5t-117 -28.5h-78q-66 0 -122 24.5t-98 66.5t-66.5 98.5 t-24.5 121.5zM100 932l199 256h129l199 -256h-156l-106 139l-109 -139h-156zM207 506h311v43q0 66 -45 111t-111 45t-110.5 -45.5t-44.5 -110.5v-43z" />
<glyph unicode="&#xeb;" d="M51 307v242q0 63 24.5 120.5t66.5 100.5t98.5 67.5t121.5 24.5q63 0 121 -24.5t100 -67.5t66.5 -100.5t24.5 -120.5v-199h-467v-43q0 -66 45 -110.5t110 -44.5h78q31 0 55.5 17t47.5 38l108 -111q-43 -43 -94 -71.5t-117 -28.5h-78q-66 0 -122 24.5t-98 66.5t-66.5 98.5 t-24.5 121.5zM129 961v155h156v-155h-156zM207 506h311v43q0 66 -45 111t-111 45t-110.5 -45.5t-44.5 -110.5v-43zM440 961v155h156v-155h-156z" />
<glyph unicode="&#xec;" horiz-adv-x="299" d="M-88 1178h162l119 -232h-97zM72 0v858h155v-858h-155z" />
<glyph unicode="&#xed;" horiz-adv-x="299" d="M72 0v858h155v-858h-155zM76 946l119 232h161l-184 -232h-96z" />
<glyph unicode="&#xee;" horiz-adv-x="299" d="M-111 932l199 256h129l199 -256h-156l-108 139l-109 -139h-154zM72 0v858h155v-858h-155z" />
<glyph unicode="&#xef;" horiz-adv-x="299" d="M-84 961v155h156v-155h-156zM72 0v858h155v-858h-155zM227 961v155h156v-155h-156z" />
<glyph unicode="&#xf1;" horiz-adv-x="755" d="M72 0v858h155v-39q35 20 75 31.5t81 11.5q63 0 120.5 -24.5t99.5 -67.5t66.5 -100.5t24.5 -120.5v-549h-155v549q0 66 -45 111t-111 45t-111 -45.5t-45 -110.5v-549h-155zM90 940q6 39 20.5 76t38 65.5t56.5 46t78 17.5q41 0 79.5 -19.5t79.5 -33.5q23 -8 52 -9 q37 0 59 18.5t35 53.5h88q-8 -41 -22.5 -78t-38 -65.5t-57.5 -46t-79 -17.5q-41 0 -80 19.5t-80 31.5q-27 10 -51 11q-35 0 -56.5 -20.5t-33.5 -49.5h-88z" />
<glyph unicode="&#xf2;" d="M51 307v242q0 63 24.5 120.5t66.5 100.5t98.5 67.5t121.5 24.5q63 0 121 -24.5t100 -67.5t66.5 -100.5t24.5 -120.5v-242q0 -66 -24.5 -122t-66.5 -98t-99.5 -66.5t-121.5 -24.5q-66 0 -122 24.5t-98 66.5t-66.5 98.5t-24.5 121.5zM113 1178h161l117 -232h-96zM207 307 q0 -66 45 -110.5t110 -44.5q66 0 111 45t45 110v242q0 66 -45 111t-111 45t-110.5 -45.5t-44.5 -110.5v-242z" />
<glyph unicode="&#xf3;" d="M51 307v242q0 63 24.5 120.5t66.5 100.5t98.5 67.5t121.5 24.5q63 0 121 -24.5t100 -67.5t66.5 -100.5t24.5 -120.5v-242q0 -66 -24.5 -122t-66.5 -98t-99.5 -66.5t-121.5 -24.5q-66 0 -122 24.5t-98 66.5t-66.5 98.5t-24.5 121.5zM207 307q0 -66 45 -110.5t110 -44.5 q66 0 111 45t45 110v242q0 66 -45 111t-111 45t-110.5 -45.5t-44.5 -110.5v-242zM307 946l119 232h162l-185 -232h-96z" />
<glyph unicode="&#xf4;" d="M51 307v242q0 63 24.5 120.5t66.5 100.5t98.5 67.5t121.5 24.5q63 0 121 -24.5t100 -67.5t66.5 -100.5t24.5 -120.5v-242q0 -66 -24.5 -122t-66.5 -98t-99.5 -66.5t-121.5 -24.5q-66 0 -122 24.5t-98 66.5t-66.5 98.5t-24.5 121.5zM100 932l199 256h129l199 -256h-156 l-106 139l-109 -139h-156zM207 307q0 -66 45 -110.5t110 -44.5q66 0 111 45t45 110v242q0 66 -45 111t-111 45t-110.5 -45.5t-44.5 -110.5v-242z" />
<glyph unicode="&#xf5;" d="M51 307v242q0 63 24.5 120.5t66.5 100.5t98.5 67.5t121.5 24.5q63 0 121 -24.5t100 -67.5t66.5 -100.5t24.5 -120.5v-242q0 -66 -24.5 -122t-66.5 -98t-99.5 -66.5t-121.5 -24.5q-66 0 -122 24.5t-98 66.5t-66.5 98.5t-24.5 121.5zM72 940q6 39 20 76t38 65.5t56.5 46 t77.5 17.5q41 0 80 -19.5t80 -33.5q23 -8 51 -9q37 0 59.5 18.5t34.5 53.5h88q-8 -41 -22 -78t-38 -65.5t-57.5 -46t-78.5 -17.5q-41 0 -80 19.5t-80 31.5q-27 10 -51 11q-35 0 -56.5 -20.5t-33.5 -49.5h-88zM207 307q0 -66 45 -110.5t110 -44.5q66 0 111 45t45 110v242 q0 66 -45 111t-111 45t-110.5 -45.5t-44.5 -110.5v-242z" />
<glyph unicode="&#xf6;" d="M51 307v242q0 63 24.5 120.5t66.5 100.5t98.5 67.5t121.5 24.5q63 0 121 -24.5t100 -67.5t66.5 -100.5t24.5 -120.5v-242q0 -66 -24.5 -122t-66.5 -98t-99.5 -66.5t-121.5 -24.5q-66 0 -122 24.5t-98 66.5t-66.5 98.5t-24.5 121.5zM133 961v155h156v-155h-156zM207 307 q0 -66 45 -110.5t110 -44.5q66 0 111 45t45 110v242q0 66 -45 111t-111 45t-110.5 -45.5t-44.5 -110.5v-242zM444 961v155h156v-155h-156z" />
<glyph unicode="&#xf8;" d="M51 307v242q0 63 24.5 120.5t66.5 100.5t98.5 67.5t121.5 24.5q16 0 34 -2t34 -6l23 82h104l-33 -119q68 -41 109 -111.5t41 -156.5v-242q0 -66 -24.5 -122t-66.5 -98t-99.5 -66.5t-121.5 -24.5q-41 0 -71 8l-23 -82h-106l35 121q-66 41 -106 110.5t-40 153.5zM207 307 q0 -57 37 -100l143 498h-25q-66 0 -110.5 -45.5t-44.5 -110.5v-242zM334 154q8 0 14 -1t14 -1q66 0 111 45t45 110v242q0 61 -41 106z" />
<glyph unicode="&#xf9;" horiz-adv-x="755" d="M61 307v551h156v-551q0 -66 45 -110.5t111 -44.5t110.5 45t44.5 110v551h156v-858h-156v39q-72 -43 -155 -43q-66 0 -122 24.5t-98 66.5t-67 98.5t-25 121.5zM160 1178h162l116 -232h-96z" />
<glyph unicode="&#xfa;" horiz-adv-x="755" d="M61 307v551h156v-551q0 -66 45 -110.5t111 -44.5t110.5 45t44.5 110v551h156v-858h-156v39q-72 -43 -155 -43q-66 0 -122 24.5t-98 66.5t-67 98.5t-25 121.5zM297 946l117 232h161l-184 -232h-94z" />
<glyph unicode="&#xfb;" horiz-adv-x="755" d="M61 307v551h156v-551q0 -66 45 -110.5t111 -44.5t110.5 45t44.5 110v551h156v-858h-156v39q-72 -43 -155 -43q-66 0 -122 24.5t-98 66.5t-67 98.5t-25 121.5zM113 932l198 256h129l199 -256h-156l-106 139l-109 -139h-155z" />
<glyph unicode="&#xfc;" horiz-adv-x="755" d="M61 307v551h156v-551q0 -66 45 -110.5t111 -44.5t110.5 45t44.5 110v551h156v-858h-156v39q-72 -43 -155 -43q-66 0 -122 24.5t-98 66.5t-67 98.5t-25 121.5zM150 961v155h155v-155h-155zM461 961v155h155v-155h-155z" />
<glyph unicode="&#xff;" horiz-adv-x="741" d="M10 858h164l197 -588l196 588h164l-354 -1059q-27 -82 -97.5 -135t-162.5 -53h-21v156h21q41 0 70.5 23.5t41.5 57.5l60 177zM133 961v155h156v-155h-156zM444 961v155h156v-155h-156z" />
<glyph unicode="&#x152;" horiz-adv-x="1425" d="M68 430v395q0 86 28.5 164t80.5 137.5t126 94t162 34.5q78 0 139.5 -15t124.5 -64v79h629v-163h-465q0 -96 1 -191.5t1 -191.5h463v-164h-463q0 -96 -1 -190.5t-1 -190.5h465v-164h-629v78q-63 -47 -124.5 -62.5t-139.5 -15.5q-88 0 -162 35t-126 94t-80.5 137t-28.5 164 zM231 430q0 -61 19.5 -110.5t51.5 -84t74 -53t89 -18.5h33q86 0 153.5 62.5t77.5 170.5v461q-10 109 -77.5 171.5t-153.5 62.5h-33q-47 0 -89 -18.5t-74 -53.5t-51.5 -84t-19.5 -111v-395z" />
<glyph unicode="&#x178;" horiz-adv-x="878" d="M10 1255h183l245 -491l246 491h184l-348 -694v-561h-164v561zM205 1346v155h155v-155h-155zM516 1346v155h156v-155h-156z" />
<glyph unicode="&#x2c6;" d="M100 932l199 256h129l199 -256h-156l-106 139l-109 -139h-156z" />
<glyph unicode="&#x2dc;" horiz-adv-x="729" d="M72 940q6 39 20 76t38 65.5t56.5 46t77.5 17.5q41 0 80 -19.5t80 -33.5q23 -8 51 -9q37 0 59.5 18.5t34.5 53.5h88q-8 -41 -22 -78t-38 -65.5t-57.5 -46t-78.5 -17.5q-41 0 -80 19.5t-80 31.5q-27 10 -51 11q-35 0 -56.5 -20.5t-33.5 -49.5h-88z" />
<glyph unicode="&#x2000;" horiz-adv-x="821" />
<glyph unicode="&#x2001;" horiz-adv-x="1642" />
<glyph unicode="&#x2002;" horiz-adv-x="821" />
<glyph unicode="&#x2003;" horiz-adv-x="1642" />
<glyph unicode="&#x2004;" horiz-adv-x="547" />
<glyph unicode="&#x2005;" horiz-adv-x="410" />
<glyph unicode="&#x2006;" horiz-adv-x="273" />
<glyph unicode="&#x2007;" horiz-adv-x="273" />
<glyph unicode="&#x2008;" horiz-adv-x="205" />
<glyph unicode="&#x2009;" horiz-adv-x="328" />
<glyph unicode="&#x200a;" horiz-adv-x="91" />
<glyph unicode="&#x2010;" horiz-adv-x="929" d="M92 469v162h746v-162h-746z" />
<glyph unicode="&#x2011;" horiz-adv-x="929" d="M92 469v162h746v-162h-746z" />
<glyph unicode="&#x2012;" horiz-adv-x="929" d="M92 469v162h746v-162h-746z" />
<glyph unicode="&#x2013;" horiz-adv-x="1024" d="M0 469v162h1024v-162h-1024z" />
<glyph unicode="&#x2014;" horiz-adv-x="2048" d="M0 469v162h2048v-162h-2048z" />
<glyph unicode="&#x2018;" horiz-adv-x="266" d="M51 1083v164l103 166h47l-54 -166h68v-164h-164z" />
<glyph unicode="&#x2019;" horiz-adv-x="266" d="M51 1251v162h164v-162l-102 -168h-47l53 168h-68z" />
<glyph unicode="&#x201c;" horiz-adv-x="497" d="M51 1083v164l103 166h47l-54 -166h68v-164h-164zM283 1083v164l104 166h45l-53 -166h67v-164h-163z" />
<glyph unicode="&#x201d;" horiz-adv-x="497" d="M51 1251v162h164v-162l-102 -168h-47l53 168h-68zM283 1251v162h163v-162l-102 -168h-47l55 168h-69z" />
<glyph unicode="&#x201e;" horiz-adv-x="497" d="M51 0v164h164v-164l-102 -168h-47l53 168h-68zM283 0v164h163v-164l-102 -168h-47l55 168h-69z" />
<glyph unicode="&#x2022;" horiz-adv-x="497" d="M82 762q0 70 49 117q49 49 119 49q68 0 117 -49t49 -117q0 -70 -49 -119t-119 -49q-72 0 -117 49q-49 49 -49 119z" />
<glyph unicode="&#x2026;" horiz-adv-x="1044" d="M92 0v164h164v-164h-164zM440 0v164h164v-164h-164zM788 0v164h164v-164h-164z" />
<glyph unicode="&#x202f;" horiz-adv-x="328" />
<glyph unicode="&#x205f;" horiz-adv-x="410" />
<glyph unicode="&#x2122;" horiz-adv-x="1331" d="M82 975v115h461v-115h-174v-479h-113v479h-174zM623 494v596h116l185 -295l188 295h117v-596h-115v389l-151 -238h-78l-150 236v-387h-112z" />
<glyph unicode="&#x25fc;" horiz-adv-x="860" d="M0 0v860h860v-860h-860z" />
</font>
</defs>
</svg>
